# xmcd
#
# Track frame offsets: 
#        150
#        17617
#        35695
#        52345
#        68887
#        84097
#        104902
#        125977
#        149587
#        166060
#        178450
#        190077
#        206140
#        231932
#
# Disc length: 3498 seconds
#
# Revision: 0
# Processed by: cddbd v1.5.2PL0 Copyright (c) Steve Scherf et al.
# Submitted via: ExactAudioCopy v0.99pb4
#
DISCID=da0da80e
DTITLE=Mon Gumbo - Mississippi Takes Forever
DYEAR=1997
DGENRE=Zydeco
TTITLE0=Bon Ton Blues
TTITLE1=Red Beans
TTITLE2=Mississippi Takes Forever
TTITLE3=Streets in The Rain
TTITLE4=Zydeco Sont Pas Sale
TTITLE5=Flames of Hell
TTITLE6=Louisiana Blues
TTITLE7=Big Chief
TTITLE8=Eight Ball Blues
TTITLE9=Zydeco Cha Cha
TTITLE10=Big Orange Moon
TTITLE11=Pinegrove Blues
TTITLE12=Just a Closer Walk With Thee
TTITLE13=Iko Iko
EXTD=
EXTT0=
EXTT1=
EXTT2=
EXTT3=
EXTT4=
EXTT5=
EXTT6=
EXTT7=
EXTT8=
EXTT9=
EXTT10=
EXTT11=
EXTT12=
EXTT13=
PLAYORDER=
